# xmcd
#
# Track frame offsets: 
#        150
#        20205
#        37447
#        58199
#        88891
#        106974
#        140518
#        161180
#        190559
#        209005
#        228854
#        245890
#
# Disc length: 3484 seconds
#
# Revision: 0
# Processed by: cddbd v1.5.2PL0 Copyright (c) Steve Scherf et al.
# Submitted via: ExactAudioCopyFreeDBPlugin 1.0
#
DISCID=ba0d9a0c
DTITLE=Chris Taylor - Chris Taylor
DYEAR=2018
DGENRE=Folk/Rock
TTITLE0=Here's To The Losers
TTITLE1=Worthless Pursuit
TTITLE2=Clear Blue Goodbye
TTITLE3=Laughing at the Universe
TTITLE4=Going for a Swim
TTITLE5=Not So Easy to Set Free
TTITLE6=Wednesday
TTITLE7=Electric Mind
TTITLE8=Higher Ground
TTITLE9=Jesus and The Baby Elvis
TTITLE10=Better
TTITLE11=Goodnight Goodnight
EXTD=
EXTT0=
EXTT1=
EXTT2=
EXTT3=
EXTT4=
EXTT5=
EXTT6=
EXTT7=
EXTT8=
EXTT9=
EXTT10=
EXTT11=
PLAYORDER=
